<?xml version="1.0" standalone="no"?>
<!DOCTYPE svg PUBLIC "-//W3C//DTD SVG 20010904//EN"
 "http://www.w3.org/TR/2001/REC-SVG-20010904/DTD/svg10.dtd">
<svg version="1.0" xmlns="http://www.w3.org/2000/svg"
 width="667.000000pt" height="374.000000pt" viewBox="0 0 667.000000 374.000000"
 preserveAspectRatio="xMidYMid meet">

<g transform="translate(0.000000,374.000000) scale(0.100000,-0.100000)"
fill="#000000" stroke="none">
<path d="M4043 3662 c-23 -26 -51 -58 -62 -71 -15 -17 -27 -22 -44 -17 -20 5
-29 -2 -54 -37 -36 -52 -103 -168 -175 -307 -70 -134 -97 -181 -113 -200 -6
-8 -20 -31 -30 -50 -9 -19 -36 -73 -60 -120 -88 -174 -205 -433 -225 -495 -7
-22 -18 -53 -25 -70 -29 -67 -65 -156 -110 -270 -26 -66 -55 -138 -65 -160 -9
-22 -23 -57 -29 -77 -17 -50 -38 -48 -51 5 -6 23 -15 53 -20 67 -5 14 -21 70
-36 125 -14 55 -37 135 -50 178 -13 43 -24 87 -24 98 0 49 -79 293 -112 347
-20 33 -64 62 -92 62 -50 0 -155 -67 -232 -150 -34 -36 -61 -116 -50 -147 4
-9 -4 -32 -20 -54 -15 -21 -35 -67 -44 -101 -25 -85 -238 -673 -292 -802 -11
-27 -26 -68 -33 -90 -7 -23 -38 -113 -69 -201 -30 -87 -53 -161 -51 -164 3 -2
16 2 30 9 39 21 48 4 36 -66 -9 -59 -5 -79 14 -66 11 7 72 93 90 126 6 10 15
17 20 15 14 -6 10 -47 -15 -174 -12 -60 -24 -122 -27 -138 -9 -45 12 -31 65
46 29 39 65 88 81 107 26 31 31 33 54 23 25 -12 27 -10 69 70 23 45 69 143
101 217 75 177 69 162 116 267 22 50 41 94 41 97 0 15 62 136 70 136 16 0 29
-32 154 -405 128 -378 229 -663 247 -696 12 -23 29 -25 29 -4 0 27 28 16 49
-20 33 -56 45 -45 37 34 -6 69 2 93 22 68 6 -6 31 -54 57 -104 25 -51 51 -96
57 -99 7 -5 9 22 8 82 -4 118 -3 121 21 127 19 5 21 10 14 44 -4 21 -9 41 -11
45 -3 5 -39 8 -80 8 l-74 0 0 635 0 635 218 0 218 0 43 123 c24 67 50 133 57
147 8 14 20 43 28 65 8 22 30 82 50 133 20 51 36 99 36 107 0 8 6 29 14 47 8
18 21 49 29 68 30 68 57 125 67 140 12 18 100 207 100 215 0 3 19 47 43 98 24
50 54 117 67 147 12 30 33 78 45 105 26 58 39 95 31 95 -2 0 -17 -5 -31 -10
l-26 -10 6 55 c9 70 -3 71 -52 5 -57 -76 -64 -67 -37 42 8 35 22 77 30 95 15
34 18 63 7 63 -5 0 -27 -22 -50 -48z"/>
</g>
</svg>
